<svg width="259" height="259" viewBox="0 0 259 259" fill="none" xmlns="http://www.w3.org/2000/svg">
<circle cx="129.5" cy="129.5" r="129.5" fill="white"/>
<circle cx="129.5" cy="129.5" r="105.5" fill="white"/>
<path d="M109.552 121.19V114.957H120.411V143.574H113.433V121.19H109.552ZM125.153 138.478V133.068L137.541 115.349H145.028V132.676H148.242V138.478H145.028V143.574H138.325V138.478H125.153ZM138.795 122.719L132.209 132.676H138.795V122.719Z" fill="#282A39"/>
<circle cx="129.401" cy="129.915" r="60.5036" stroke="#F9365F" stroke-width="0.633546" stroke-dasharray="3.17 3.17"/>
<path d="M53.6304 118.612L53.2577 120.521L48.063 119.35C47.9197 119.317 47.7441 119.276 47.5362 119.225C47.3241 119.172 47.1083 119.117 46.8889 119.059C46.6654 119 46.4643 118.946 46.2858 118.898C46.3302 118.955 46.4042 119.068 46.5079 119.238C46.6082 119.402 46.6979 119.556 46.7769 119.698L47.4033 120.923L46.0814 121.586L44.3469 118.157L44.6533 116.588L53.6304 118.612Z" fill="#282A39"/>
<path d="M54.6787 107.25L54.3544 108.309L56.1525 108.945L55.596 110.762L53.7978 110.127L52.6478 113.882L51.3719 113.431L46.951 107.593L47.4763 105.878L52.9301 107.806L53.2544 106.746L54.6787 107.25ZM52.3735 109.623L50.9018 109.103C50.7633 109.054 50.5997 108.994 50.411 108.923C50.2236 108.848 50.0362 108.772 49.8487 108.697C49.6613 108.622 49.4956 108.555 49.3516 108.495C49.205 108.43 49.1026 108.385 49.0445 108.36L49.0297 108.408C49.1686 108.541 49.3023 108.678 49.4308 108.816C49.5553 108.954 49.6835 109.108 49.8152 109.279L51.7248 111.742L52.3735 109.623Z" fill="#282A39"/>
<path d="M59.561 94.0879C60.0366 94.3551 60.3922 94.7062 60.6277 95.1412C60.8633 95.5762 60.9651 96.0754 60.9331 96.6389C60.9031 97.1985 60.7301 97.8028 60.4143 98.4518C60.2748 98.7386 60.1197 99.0094 59.9491 99.2643C59.7803 99.5154 59.5996 99.7479 59.4071 99.9616C59.2127 100.17 59.0074 100.357 58.7912 100.524L57.2107 99.6359C57.5699 99.338 57.92 99.0158 58.2611 98.6692C58.6021 98.3227 58.8736 97.9419 59.0755 97.5268C59.2151 97.2401 59.2905 96.9893 59.3018 96.7747C59.3149 96.5562 59.2767 96.3714 59.1872 96.2202C59.0977 96.0691 58.9707 95.9473 58.806 95.8548C58.6048 95.7417 58.3989 95.7149 58.1883 95.7744C57.9777 95.8339 57.7505 95.9513 57.5068 96.1267C57.2649 96.2983 56.9982 96.4968 56.7068 96.7223C56.5254 96.8654 56.3174 97.0152 56.0828 97.1717C55.8446 97.3262 55.5844 97.4539 55.3024 97.5549C55.0203 97.6559 54.7172 97.6995 54.3932 97.6856C54.0674 97.666 53.7215 97.5534 53.3557 97.3478C52.8764 97.0786 52.5218 96.7352 52.2917 96.3177C52.0616 95.9002 51.9588 95.4317 51.9834 94.9121C52.0061 94.3868 52.157 93.8373 52.4361 93.2638C52.6454 92.8337 52.894 92.452 53.1819 92.1189C53.468 91.7799 53.8062 91.4486 54.1966 91.125L55.2438 92.4339C54.9083 92.7307 54.6269 93.0075 54.3995 93.2641C54.1685 93.5187 53.9768 93.8026 53.8244 94.1157C53.7179 94.3346 53.6618 94.5409 53.656 94.7346C53.6466 94.9263 53.6848 95.0967 53.7706 95.2459C53.8528 95.3929 53.9743 95.5117 54.1353 95.6021C54.3256 95.709 54.5141 95.7428 54.7009 95.7036C54.8858 95.6585 55.0947 95.5548 55.3274 95.3925C55.562 95.2264 55.8442 95.015 56.1741 94.7583C56.5737 94.4446 56.952 94.1983 57.3093 94.0194C57.6647 93.8347 58.0246 93.7414 58.3889 93.7394C58.7496 93.7354 59.1403 93.8516 59.561 94.0879Z" fill="#282A39"/>
<path d="M59.4805 81.238L64.3041 84.7293C64.8174 85.1008 65.2067 85.5557 65.4721 86.0941C65.7363 86.6265 65.8386 87.22 65.779 87.8746C65.7217 88.5257 65.4657 89.2139 65.0109 89.9391C64.3645 90.9702 63.6203 91.5738 62.7784 91.7501C61.9365 91.9263 61.1008 91.7143 60.2714 91.114L55.4682 87.6375L56.5014 85.9896L61.0649 89.2927C61.6802 89.738 62.1944 89.9189 62.6075 89.8354C63.0206 89.7519 63.3887 89.4524 63.712 88.9369C63.9393 88.5743 64.0637 88.2379 64.0852 87.9278C64.1089 87.6142 64.0301 87.3142 63.8488 87.028C63.6675 86.7417 63.3848 86.4596 63.0007 86.1816L58.4474 82.8859L59.4805 81.238Z" fill="#282A39"/>
<path d="M65.2561 76.0825C65.0241 76.3752 64.8725 76.6846 64.801 77.0106C64.7291 77.3306 64.7325 77.6599 64.8113 77.9986C64.8927 78.3339 65.0446 78.6714 65.2669 79.0109C65.4892 79.3504 65.7784 79.683 66.1345 80.0086C66.6144 80.4476 67.0742 80.7604 67.5138 80.9469C67.953 81.1274 68.3679 81.1665 68.7585 81.0644C69.1461 80.9594 69.5067 80.6964 69.8402 80.2754C70.0722 79.9827 70.2731 79.6617 70.4431 79.3123C70.6157 78.9596 70.7816 78.5582 70.9406 78.1081L72.1482 79.2126C72.0193 79.645 71.8587 80.0398 71.6664 80.3971C71.4771 80.7572 71.2301 81.1297 70.9252 81.5145C70.3362 82.2578 69.7076 82.7379 69.0391 82.9547C68.3702 83.1654 67.6844 83.1479 66.9818 82.9024C66.2761 82.654 65.5749 82.2112 64.8783 81.5739C64.3643 81.1038 63.9522 80.5993 63.6422 80.0605C63.3322 79.5216 63.1342 78.9661 63.0481 78.3939C62.9621 77.8218 63.0007 77.2473 63.164 76.6705C63.3273 76.0938 63.6252 75.5324 64.0578 74.9864C64.3418 74.6279 64.6692 74.3091 65.04 74.0299C65.4102 73.7445 65.8 73.5054 66.2092 73.3124L66.9887 74.8763C66.6543 75.0356 66.334 75.2106 66.0279 75.4015C65.7218 75.5923 65.4645 75.8193 65.2561 76.0825Z" fill="#282A39"/>
<path d="M71.2432 69.409C70.9833 69.6772 70.8016 69.97 70.698 70.2875C70.5946 70.5988 70.5651 70.9269 70.6097 71.2719C70.6571 71.6138 70.7745 71.9649 70.9617 72.325C71.149 72.6852 71.4034 73.0451 71.725 73.4048C72.1586 73.8897 72.5846 74.247 73.0032 74.4765C73.422 74.7 73.8307 74.7804 74.2294 74.7177C74.6254 74.6519 75.0102 74.4261 75.384 74.0404C75.6438 73.7721 75.8758 73.4726 76.0797 73.1418C76.2865 72.808 76.4915 72.4251 76.6946 71.9929L77.7854 73.2129C77.6141 73.6303 77.4149 74.0073 77.188 74.3438C76.9639 74.6834 76.681 75.0295 76.3393 75.3821C75.6794 76.0632 75.0063 76.4783 74.3199 76.6274C73.6336 76.7703 72.9533 76.6845 72.279 76.3699C71.602 76.0522 70.9488 75.5414 70.3195 74.8375C69.8552 74.3182 69.4958 73.7749 69.2412 73.2076C68.9866 72.6403 68.8451 72.0676 68.8167 71.4894C68.7882 70.9113 68.8839 70.3433 69.1039 69.7855C69.3238 69.2277 69.6761 68.6986 70.1608 68.1983C70.4791 67.8699 70.8365 67.5852 71.2331 67.3442C71.6298 67.0972 72.0413 66.8981 72.4675 66.7469L73.0867 68.3814C72.7382 68.5065 72.4022 68.6488 72.0788 68.8082C71.7553 68.9676 71.4768 69.1679 71.2432 69.409Z" fill="#282A39"/>
<path d="M83.4437 68.7551L79.3675 72.1423L73.9914 64.6736L78.0676 61.2864L79.0016 62.584L76.4262 64.7241L77.6066 66.364L80.0029 64.3727L80.9369 65.6703L78.5406 67.6615L79.9269 69.5875L82.5023 67.4473L83.4437 68.7551Z" fill="#282A39"/>
<path d="M89.7713 61.142C90.0429 61.6151 90.1688 62.0994 90.149 62.5948C90.1292 63.0902 89.9619 63.5727 89.6473 64.0424C89.3362 64.5098 88.8798 64.9429 88.2782 65.3416C88.0123 65.5177 87.7413 65.6722 87.4651 65.8051C87.1923 65.9356 86.9189 66.0439 86.6449 66.13C86.3722 66.2102 86.1007 66.2671 85.8302 66.3007L84.9277 64.7285C85.3876 64.6548 85.8521 64.5555 86.3212 64.4306C86.7902 64.3056 87.2171 64.1156 87.6019 63.8607C87.8677 63.6845 88.0602 63.5067 88.1794 63.3273C88.302 63.1456 88.3635 62.9667 88.3638 62.7906C88.3641 62.6146 88.3173 62.4447 88.2233 62.2809C88.1084 62.0807 87.9455 61.9526 87.7346 61.8964C87.5237 61.8402 87.2691 61.8256 86.9707 61.8525C86.6758 61.8772 86.3459 61.9124 85.9811 61.9582C85.7526 61.9891 85.4979 62.0122 85.217 62.0275C84.934 62.0392 84.6458 62.0167 84.3525 61.9599C84.0591 61.9031 83.7771 61.7861 83.5063 61.6088C83.237 61.4256 82.9979 61.152 82.789 60.7881C82.5153 60.3114 82.3862 59.8342 82.4018 59.3567C82.4174 58.8792 82.5682 58.4226 82.8541 57.987C83.1414 57.5454 83.5509 57.1484 84.0826 56.7961C84.4814 56.5319 84.8891 56.3295 85.3058 56.189C85.7239 56.0425 86.1828 55.9293 86.6825 55.8494L86.913 57.5127C86.4741 57.5976 86.0917 57.6927 85.7659 57.7981C85.438 57.8998 85.1289 58.0469 84.8386 58.2393C84.6357 58.3737 84.4824 58.523 84.3787 58.6872C84.2729 58.8478 84.2188 59.0142 84.2163 59.1866C84.2118 59.3554 84.2555 59.5199 84.3474 59.68C84.4561 59.8692 84.6004 59.9946 84.7806 60.0561C84.9621 60.1116 85.1941 60.1287 85.4764 60.1074C85.7622 60.0838 86.112 60.0454 86.5257 59.9923C87.0282 59.9255 87.4782 59.9062 87.8757 59.9341C88.2746 59.9561 88.6307 60.0592 88.9441 60.2434C89.2553 60.424 89.5311 60.7235 89.7713 61.142Z" fill="#282A39"/>
<path d="M96.8398 57.2556C97.0659 57.752 97.1455 58.2451 97.0785 58.7347C97.0115 59.2243 96.7985 59.6866 96.4396 60.1215C96.0843 60.5544 95.5873 60.9388 94.9485 61.2747C94.6662 61.4232 94.3808 61.5496 94.0923 61.6539C93.8075 61.7564 93.5241 61.8367 93.2422 61.895C92.9623 61.9475 92.6857 61.977 92.4124 61.9834L91.661 60.3337C92.1273 60.3063 92.6006 60.2539 93.0809 60.1764C93.5612 60.099 94.0057 59.9528 94.4142 59.738C94.6965 59.5896 94.9057 59.4323 95.0417 59.2661C95.1815 59.0979 95.2599 58.9265 95.2771 58.7518C95.2942 58.5772 95.2636 58.4039 95.1853 58.2321C95.0897 58.022 94.9392 57.8787 94.7339 57.802C94.5287 57.7253 94.2758 57.6855 93.9752 57.6826C93.6784 57.6778 93.3456 57.68 92.9769 57.6893C92.7458 57.6972 92.4892 57.6949 92.2072 57.6822C91.9235 57.6657 91.6379 57.6147 91.3503 57.5293C91.0628 57.4438 90.7923 57.2996 90.5388 57.0969C90.2873 56.8883 90.0746 56.5931 89.9006 56.2112C89.6728 55.711 89.5894 55.2247 89.6504 54.7524C89.7115 54.28 89.9056 53.8419 90.2326 53.438C90.5616 53.0284 91.0084 52.6751 91.5729 52.3783C91.9964 52.1556 92.4228 51.9953 92.8523 51.8972C93.2838 51.7934 93.7529 51.7266 94.2596 51.6969L94.3312 53.3703C93.8848 53.411 93.4939 53.4674 93.1585 53.5397C92.8214 53.6081 92.4987 53.7233 92.1904 53.8854C91.975 53.9987 91.8076 54.1316 91.6884 54.2843C91.5674 54.4331 91.4975 54.5929 91.4787 54.7637C91.4581 54.9308 91.486 55.0983 91.5626 55.2663C91.653 55.4649 91.7853 55.6036 91.9593 55.6825C92.1353 55.7556 92.3653 55.7956 92.6493 55.8025C92.937 55.8075 93.2899 55.8041 93.7081 55.7925C94.2163 55.7761 94.6675 55.8016 95.0618 55.8688C95.4581 55.9302 95.8039 56.0679 96.0993 56.2818C96.393 56.4918 96.6398 56.8164 96.8398 57.2556Z" fill="#282A39"/>
<path d="M108.878 52.6299C109.028 53.1544 109.033 53.6517 108.893 54.1219C108.752 54.592 108.471 55.0116 108.049 55.3805C107.631 55.7481 107.079 56.045 106.393 56.2712C106.091 56.3711 105.788 56.4489 105.486 56.5046C105.187 56.5589 104.893 56.5918 104.604 56.6033C104.318 56.6094 104.039 56.5934 103.767 56.5552L103.268 54.8123C103.736 54.8611 104.214 54.8865 104.703 54.8885C105.192 54.8905 105.656 54.8192 106.094 54.6745C106.397 54.5746 106.628 54.454 106.789 54.3129C106.953 54.1704 107.057 54.0147 107.1 53.8459C107.143 53.677 107.139 53.5018 107.087 53.3203C107.024 53.0984 106.896 52.9331 106.703 52.8244C106.511 52.7157 106.266 52.6355 105.967 52.5838C105.673 52.5308 105.342 52.4789 104.974 52.428C104.743 52.3983 104.489 52.3542 104.21 52.296C103.931 52.2337 103.655 52.1371 103.382 52.0064C103.109 51.8757 102.862 51.6901 102.641 51.4497C102.422 51.2039 102.255 50.8793 102.14 50.4758C101.989 49.9473 101.979 49.456 102.111 49.0018C102.243 48.5477 102.502 48.1488 102.887 47.8052C103.276 47.4561 103.773 47.1817 104.379 46.9818C104.833 46.8319 105.281 46.7437 105.723 46.7172C106.167 46.6853 106.643 46.6959 107.151 46.7491L106.97 48.4048C106.521 48.3722 106.124 48.3642 105.78 48.3806C105.434 48.393 105.096 48.4538 104.766 48.5629C104.534 48.6392 104.348 48.7426 104.207 48.8732C104.064 48.9997 103.97 49.1454 103.926 49.3102C103.88 49.471 103.883 49.6401 103.934 49.8176C103.994 50.0274 104.104 50.1852 104.265 50.291C104.429 50.3915 104.652 50.4681 104.933 50.5211C105.218 50.5727 105.569 50.6268 105.987 50.6833C106.494 50.7499 106.939 50.8482 107.32 50.9783C107.705 51.1031 108.028 51.2945 108.289 51.5527C108.549 51.8068 108.746 52.1659 108.878 52.6299Z" fill="#282A39"/>
<path d="M117.534 43.8933L118.567 49.7576C118.676 50.3817 118.638 50.9738 118.451 51.534C118.268 52.0892 117.924 52.5699 117.421 52.9761C116.922 53.3815 116.252 53.6695 115.413 53.8399C114.221 54.0823 113.258 53.9611 112.526 53.4765C111.793 52.9919 111.338 52.2454 111.16 51.237L110.132 45.3975L112.038 45.0102L113.015 50.5583C113.147 51.3064 113.391 51.8003 113.749 52.0401C114.106 52.28 114.583 52.3393 115.179 52.2182C115.599 52.1329 115.925 51.9917 116.159 51.7944C116.396 51.5962 116.55 51.3338 116.621 51.007C116.691 50.6803 116.685 50.2834 116.603 49.8164L115.628 44.2807L117.534 43.8933Z" fill="#282A39"/>
<path d="M124.843 44.7115C124.47 44.7414 124.145 44.8411 123.867 45.0108C123.592 45.1759 123.366 45.4024 123.188 45.6903C123.015 45.9778 122.891 46.3182 122.817 46.7114C122.744 47.1045 122.724 47.5418 122.757 48.0232C122.802 48.6721 122.92 49.2204 123.111 49.6681C123.306 50.1113 123.581 50.4407 123.937 50.6564C124.292 50.8678 124.738 50.9521 125.273 50.9091C125.645 50.8793 126.015 50.8076 126.381 50.694C126.752 50.5801 127.151 50.4281 127.58 50.238L127.693 51.8706C127.299 52.0705 126.908 52.2219 126.52 52.3246C126.132 52.4315 125.693 52.5045 125.204 52.5438C124.258 52.6196 123.467 52.4873 122.829 52.147C122.195 51.8021 121.708 51.2898 121.366 50.61C121.024 49.926 120.82 49.1131 120.755 48.1712C120.707 47.4763 120.756 46.8324 120.905 46.2397C121.053 45.6469 121.294 45.1245 121.628 44.6725C121.963 44.2205 122.39 43.8579 122.909 43.5848C123.429 43.3116 124.036 43.1472 124.73 43.0915C125.186 43.0549 125.646 43.077 126.11 43.1576C126.578 43.2337 127.028 43.3555 127.46 43.5229L126.943 45.1556C126.588 45.0198 126.234 44.9052 125.878 44.8116C125.522 44.7181 125.177 44.6847 124.843 44.7115Z" fill="#282A39"/>
<path d="M133.459 44.6591C133.086 44.6488 132.753 44.7131 132.46 44.8519C132.171 44.9866 131.925 45.1876 131.721 45.4548C131.522 45.7222 131.367 46.0474 131.257 46.4306C131.147 46.8137 131.087 47.2465 131.075 47.729C131.06 48.3792 131.126 48.9372 131.274 49.4031C131.427 49.8649 131.67 50.2221 132.004 50.4748C132.338 50.7234 132.774 50.855 133.311 50.8699C133.684 50.8802 134.058 50.8486 134.433 50.775C134.813 50.7016 135.225 50.5933 135.669 50.4503L135.63 52.0863C135.219 52.2429 134.815 52.3514 134.419 52.4118C134.023 52.4764 133.58 52.5019 133.089 52.4883C132.141 52.4621 131.366 52.2455 130.763 51.8384C130.164 51.4272 129.726 50.8652 129.449 50.1523C129.173 49.4352 129.046 48.6047 129.068 47.6609C129.085 46.9645 129.195 46.3294 129.397 45.7558C129.6 45.1821 129.889 44.6884 130.264 44.2748C130.639 43.8612 131.098 43.5465 131.64 43.3306C132.183 43.1147 132.802 43.0164 133.498 43.0357C133.955 43.0483 134.411 43.1197 134.866 43.2498C135.324 43.3758 135.761 43.5453 136.176 43.7583L135.508 45.3266C135.168 45.1535 134.826 45.0013 134.481 44.87C134.135 44.7387 133.795 44.6684 133.459 44.6591Z" fill="#282A39"/>
<path d="M142.499 53.4074L137.253 52.6548L138.388 43.5227L143.634 44.2753L143.437 45.8619L140.122 45.3863L139.873 47.3914L142.957 47.8339L142.76 49.4204L139.676 48.978L139.383 51.3328L142.698 51.8084L142.499 53.4074Z" fill="#282A39"/>
<path d="M151.918 53.0677C151.798 53.5998 151.565 54.0289 151.221 54.355C150.876 54.6811 150.434 54.8865 149.894 54.971C149.359 55.0566 148.742 55.0083 148.044 54.8259C147.735 54.7453 147.437 54.6459 147.15 54.5276C146.867 54.4103 146.599 54.2773 146.344 54.1285C146.095 53.9767 145.862 53.8096 145.645 53.6273L146.045 51.8592C146.424 52.1577 146.824 52.4421 147.245 52.7122C147.665 52.9824 148.099 53.1758 148.546 53.2924C148.854 53.373 149.111 53.3967 149.316 53.3636C149.526 53.3316 149.689 53.2551 149.807 53.1341C149.924 53.0131 150.004 52.8605 150.046 52.6764C150.097 52.4513 150.065 52.2393 149.951 52.0404C149.837 51.8416 149.664 51.6381 149.431 51.4301C149.203 51.2231 148.942 50.9968 148.649 50.7513C148.465 50.599 148.266 50.4215 148.054 50.2187C147.843 50.0119 147.651 49.7775 147.478 49.5156C147.305 49.2537 147.18 48.9589 147.104 48.6312C147.032 48.3005 147.043 47.9305 147.135 47.5212C147.257 46.985 147.482 46.5584 147.812 46.2414C148.142 45.9244 148.555 45.7244 149.051 45.6416C149.552 45.5556 150.111 45.5933 150.728 45.7544C151.191 45.8753 151.619 46.0455 152.012 46.2652C152.41 46.4819 152.815 46.7525 153.228 47.0769L152.284 48.3974C151.912 48.1226 151.574 47.8977 151.269 47.7228C150.966 47.5439 150.646 47.4104 150.309 47.3224C150.073 47.261 149.863 47.2474 149.679 47.2817C149.496 47.3119 149.346 47.3854 149.23 47.5023C149.114 47.6151 149.035 47.7615 148.995 47.9416C148.947 48.1545 148.967 48.3505 149.055 48.5296C149.149 48.7057 149.304 48.8936 149.521 49.0934C149.742 49.2942 150.019 49.5334 150.352 49.811C150.758 50.1466 151.094 50.475 151.361 50.7962C151.633 51.1143 151.82 51.4557 151.923 51.8206C152.026 52.1813 152.024 52.597 151.918 53.0677Z" fill="#282A39"/>
<path d="M159.377 55.8293C159.208 56.3482 158.938 56.7527 158.566 57.0429C158.194 57.3332 157.737 57.4929 157.194 57.5221C156.655 57.5528 156.047 57.4413 155.372 57.1878C155.073 57.0758 154.787 56.946 154.513 56.7985C154.243 56.6525 153.989 56.4922 153.75 56.3176C153.517 56.1405 153.301 55.9499 153.103 55.7457L153.663 54.0217C154.012 54.3586 154.383 54.6834 154.775 54.9961C155.167 55.3088 155.579 55.5463 156.011 55.7084C156.31 55.8204 156.562 55.8704 156.769 55.8584C156.98 55.8479 157.149 55.7882 157.277 55.6795C157.405 55.5708 157.498 55.4266 157.556 55.247C157.627 55.0275 157.616 54.8127 157.521 54.6025C157.426 54.3924 157.273 54.1715 157.062 53.94C156.855 53.71 156.617 53.4575 156.349 53.1825C156.18 53.0115 156 52.814 155.808 52.5898C155.618 52.3617 155.449 52.1081 155.302 51.829C155.154 51.5499 155.058 51.2428 155.012 50.9079C154.972 50.5704 155.017 50.2022 155.147 49.8031C155.317 49.2803 155.58 48.8775 155.936 48.5948C156.292 48.3121 156.72 48.1548 157.22 48.1228C157.725 48.0884 158.276 48.1832 158.873 48.4072C159.321 48.5752 159.73 48.789 160.099 49.0486C160.474 49.3056 160.851 49.6172 161.23 49.9833L160.172 51.2049C159.829 50.8924 159.514 50.6333 159.228 50.4276C158.944 50.2179 158.638 50.0519 158.312 49.9295C158.084 49.8441 157.878 49.809 157.692 49.8244C157.507 49.8358 157.352 49.8939 157.225 49.9986C157.1 50.0994 157.009 50.2375 156.952 50.4131C156.884 50.6206 156.886 50.8183 156.957 51.0062C157.034 51.1916 157.17 51.3951 157.367 51.6167C157.568 51.8398 157.821 52.1069 158.125 52.4181C158.496 52.7947 158.8 53.1569 159.035 53.5049C159.275 53.8502 159.429 54.2103 159.497 54.5849C159.566 54.9556 159.526 55.3704 159.377 55.8293Z" fill="#282A39"/>
<path d="M162.39 60.1415L160.662 59.3039L164.226 50.8197L168.973 53.1212L168.353 54.5952L165.335 53.1314L164.416 55.3191L167.225 56.6814L166.608 58.1496L163.799 56.7873L162.39 60.1415Z" fill="#282A39"/>
<path d="M176.939 58.033L174.11 63.2728C173.809 63.8304 173.418 64.2601 172.936 64.5619C172.46 64.8623 171.91 64.9937 171.288 64.9563C170.669 64.9211 169.997 64.6771 169.27 64.2244C168.237 63.5808 167.598 62.8171 167.352 61.9333C167.105 61.0494 167.225 60.157 167.712 59.256L170.528 54.0384L172.179 55.067L169.503 60.0243C169.142 60.6927 169.021 61.2438 169.139 61.6775C169.257 62.1113 169.574 62.4891 170.09 62.8109C170.454 63.0373 170.782 63.1557 171.076 63.1663C171.374 63.1791 171.649 63.084 171.902 62.881C172.154 62.678 172.393 62.3679 172.618 61.9506L175.288 57.0044L176.939 58.033Z" fill="#282A39"/>
<path d="M174.504 67.7683L179.599 60.1055L181.147 61.2937L176.944 67.6147L179.905 69.8875L179.012 71.2293L174.504 67.7683Z" fill="#282A39"/>
<path d="M180.054 72.7071L185.626 65.384L187.092 66.6718L182.495 72.7126L185.3 75.1761L184.324 76.4584L180.054 72.7071Z" fill="#282A39"/>
<path d="M189.502 74.3424L193.375 72.9277L194.825 74.4494L188.939 76.3996L186.53 79.0501L185.192 77.6469L187.559 75.0429L189.275 68.6268L190.734 70.1576L189.502 74.3424Z" fill="#282A39"/>
<path d="M198.59 80.0078L199.765 81.7512L197.382 85.2836C197.306 85.3957 197.225 85.5038 197.139 85.6081C197.052 85.7123 196.96 85.8156 196.863 85.918C196.765 86.0205 196.66 86.1233 196.548 86.2265L196.569 86.2578C196.762 86.1395 196.948 86.0373 197.127 85.951C197.309 85.8681 197.494 85.7953 197.684 85.7325L201.537 84.382L202.688 86.0888L194.759 88.4935C194.274 88.6427 193.823 88.6965 193.406 88.6548C192.986 88.6156 192.606 88.4897 192.266 88.277C191.928 88.0678 191.633 87.777 191.383 87.4047C191.261 87.2237 191.165 87.0594 191.096 86.9117C191.023 86.7666 190.965 86.6393 190.922 86.5299L192.124 85.5946C192.157 85.6806 192.204 85.7844 192.266 85.906C192.328 86.0277 192.399 86.1494 192.482 86.2712C192.632 86.4939 192.805 86.6505 193.003 86.741C193.2 86.8315 193.411 86.8715 193.636 86.8608C193.858 86.8528 194.079 86.8105 194.3 86.734L194.637 86.6154L198.59 80.0078Z" fill="#282A39"/>
<path d="M198.647 97.691L196.181 93.0001L204.047 88.225L206.514 92.9159L205.147 93.7455L203.589 90.7817L201.861 91.8301L203.311 94.5878L201.945 95.4174L200.495 92.6597L198.466 93.891L200.025 96.8549L198.647 97.691Z" fill="#282A39"/>
<path d="M202.367 106.678L204.119 105.153L202.893 102.03L200.654 102.313L199.886 100.356L209.489 99.5656L210.361 101.786L203.136 108.635L202.367 106.678ZM205.439 104.044L207.145 102.54C207.259 102.442 207.405 102.313 207.581 102.155C207.763 101.999 207.946 101.84 208.13 101.679C208.32 101.519 208.485 101.384 208.627 101.274C208.455 101.306 208.238 101.34 207.978 101.375C207.722 101.413 207.479 101.447 207.248 101.478C207.017 101.509 206.852 101.531 206.754 101.543L204.563 101.812L205.439 104.044Z" fill="#282A39"/>
<path d="M213.057 110.27C213.284 111.074 213.375 111.767 213.331 112.351C213.288 112.938 213.109 113.422 212.794 113.803C212.478 114.184 212.026 114.47 211.435 114.663C211.036 114.793 210.666 114.83 210.323 114.774C209.981 114.719 209.67 114.599 209.392 114.417C209.114 114.234 208.868 114.019 208.654 113.771L205.578 117.619L204.989 115.535L207.749 112.326L207.466 111.327L204.109 112.422L203.579 110.544L212.327 107.69L213.057 110.27ZM211.499 110.633L211.338 110.064L208.974 110.835L209.146 111.441C209.321 112.062 209.549 112.473 209.827 112.674C210.111 112.876 210.453 112.913 210.852 112.783C211.266 112.647 211.521 112.406 211.614 112.058C211.708 111.714 211.67 111.239 211.499 110.633Z" fill="#282A39"/>
<path d="M208.987 124.606C208.454 124.722 207.966 124.693 207.524 124.519C207.081 124.345 206.706 124.032 206.399 123.58C206.092 123.131 205.872 122.552 205.738 121.843C205.679 121.53 205.642 121.218 205.626 120.908C205.611 120.602 205.616 120.303 205.642 120.009C205.673 119.719 205.724 119.438 205.796 119.165L207.568 118.779C207.46 119.249 207.374 119.731 207.309 120.226C207.245 120.721 207.255 121.195 207.341 121.649C207.4 121.962 207.488 122.205 207.606 122.376C207.725 122.552 207.864 122.668 208.024 122.723C208.184 122.779 208.356 122.786 208.54 122.746C208.766 122.697 208.944 122.579 209.075 122.391C209.206 122.204 209.316 121.961 209.405 121.663C209.495 121.368 209.588 121.037 209.685 120.668C209.744 120.436 209.819 120.181 209.912 119.904C210.009 119.625 210.139 119.352 210.302 119.085C210.465 118.817 210.678 118.58 210.942 118.372C211.211 118.168 211.55 118.021 211.96 117.931C212.497 117.815 212.98 117.838 213.408 118.003C213.836 118.167 214.193 118.456 214.481 118.87C214.773 119.287 214.978 119.809 215.096 120.436C215.185 120.906 215.214 121.365 215.184 121.814C215.158 122.266 215.086 122.748 214.969 123.258L213.37 122.963C213.46 122.51 213.519 122.108 213.547 121.759C213.579 121.408 213.563 121.062 213.498 120.72C213.453 120.481 213.375 120.285 213.266 120.133C213.16 119.98 213.029 119.875 212.873 119.819C212.722 119.762 212.556 119.753 212.375 119.792C212.162 119.839 211.993 119.94 211.869 120.096C211.75 120.255 211.646 120.475 211.558 120.756C211.471 121.041 211.373 121.393 211.264 121.811C211.134 122.321 210.981 122.764 210.805 123.142C210.633 123.522 210.404 123.836 210.118 124.083C209.836 124.329 209.459 124.504 208.987 124.606Z" fill="#282A39"/>
<path d="M205.844 141.219L206.217 139.31L211.412 140.481C211.555 140.513 211.73 140.555 211.938 140.606C212.151 140.658 212.366 140.713 212.586 140.771C212.809 140.83 213.01 140.884 213.189 140.933C213.144 140.876 213.07 140.762 212.967 140.593C212.866 140.428 212.777 140.275 212.698 140.132L212.071 138.908L213.393 138.244L215.128 141.673L214.821 143.242L205.844 141.219Z" fill="#282A39"/>
<path d="M204.796 152.581L205.12 151.522L203.322 150.886L203.878 149.068L205.677 149.704L206.827 145.948L208.102 146.399L212.523 152.238L211.998 153.953L206.544 152.025L206.22 153.084L204.796 152.581ZM207.101 150.207L208.573 150.728C208.711 150.777 208.875 150.837 209.063 150.908C209.251 150.983 209.438 151.058 209.626 151.133C209.813 151.208 209.979 151.276 210.123 151.336C210.269 151.401 210.372 151.446 210.43 151.471L210.445 151.423C210.306 151.289 210.172 151.153 210.044 151.014C209.919 150.877 209.791 150.723 209.659 150.551L207.75 148.089L207.101 150.207Z" fill="#282A39"/>
<path d="M199.914 165.743C199.438 165.475 199.083 165.124 198.847 164.689C198.612 164.254 198.51 163.755 198.542 163.192C198.572 162.632 198.745 162.028 199.061 161.379C199.2 161.092 199.355 160.821 199.526 160.566C199.695 160.315 199.875 160.083 200.068 159.869C200.262 159.661 200.467 159.474 200.684 159.307L202.264 160.195C201.905 160.493 201.555 160.815 201.214 161.161C200.873 161.508 200.601 161.889 200.399 162.304C200.26 162.591 200.184 162.841 200.173 163.056C200.16 163.274 200.198 163.459 200.288 163.61C200.377 163.761 200.504 163.883 200.669 163.976C200.87 164.089 201.076 164.116 201.287 164.056C201.497 163.997 201.724 163.879 201.968 163.704C202.21 163.532 202.477 163.334 202.768 163.108C202.949 162.965 203.157 162.815 203.392 162.659C203.63 162.504 203.89 162.377 204.172 162.276C204.455 162.175 204.758 162.131 205.082 162.145C205.407 162.165 205.753 162.277 206.119 162.483C206.598 162.752 206.953 163.095 207.183 163.513C207.413 163.93 207.516 164.399 207.491 164.918C207.469 165.444 207.318 165.993 207.039 166.567C206.829 166.997 206.581 167.379 206.293 167.712C206.007 168.051 205.669 168.382 205.278 168.706L204.231 167.397C204.567 167.1 204.848 166.823 205.075 166.566C205.306 166.312 205.498 166.028 205.65 165.715C205.757 165.496 205.813 165.29 205.819 165.096C205.828 164.904 205.79 164.734 205.704 164.585C205.622 164.438 205.501 164.319 205.34 164.228C205.149 164.122 204.961 164.088 204.774 164.127C204.589 164.172 204.38 164.276 204.147 164.438C203.913 164.604 203.631 164.816 203.301 165.072C202.901 165.386 202.523 165.632 202.166 165.811C201.81 165.996 201.45 166.089 201.086 166.091C200.725 166.095 200.335 165.979 199.914 165.743Z" fill="#282A39"/>
<path d="M199.994 178.593L195.17 175.102C194.657 174.73 194.268 174.275 194.003 173.737C193.738 173.205 193.636 172.611 193.696 171.956C193.753 171.305 194.009 170.617 194.464 169.892C195.11 168.861 195.854 168.257 196.696 168.081C197.538 167.905 198.374 168.117 199.203 168.717L204.006 172.194L202.973 173.841L198.41 170.538C197.794 170.093 197.28 169.912 196.867 169.996C196.454 170.079 196.086 170.379 195.763 170.894C195.535 171.257 195.411 171.593 195.389 171.903C195.366 172.217 195.445 172.517 195.626 172.803C195.807 173.089 196.09 173.371 196.474 173.65L201.027 176.945L199.994 178.593Z" fill="#282A39"/>
<path d="M194.218 183.748C194.45 183.455 194.602 183.146 194.673 182.82C194.745 182.5 194.742 182.171 194.663 181.832C194.582 181.497 194.43 181.159 194.207 180.82C193.985 180.48 193.696 180.148 193.34 179.822C192.86 179.383 192.4 179.07 191.961 178.884C191.521 178.703 191.106 178.664 190.716 178.766C190.328 178.871 189.968 179.134 189.634 179.555C189.402 179.848 189.201 180.169 189.031 180.518C188.859 180.871 188.693 181.272 188.534 181.722L187.326 180.618C187.455 180.186 187.616 179.791 187.808 179.433C187.997 179.073 188.244 178.701 188.549 178.316C189.138 177.573 189.767 177.093 190.435 176.876C191.104 176.665 191.79 176.683 192.493 176.928C193.198 177.177 193.899 177.619 194.596 178.257C195.11 178.727 195.522 179.231 195.832 179.77C196.142 180.309 196.34 180.864 196.426 181.437C196.512 182.009 196.474 182.583 196.31 183.16C196.147 183.737 195.849 184.298 195.417 184.844C195.133 185.203 194.805 185.522 194.434 185.801C194.064 186.086 193.674 186.325 193.265 186.518L192.486 184.954C192.82 184.795 193.14 184.62 193.446 184.429C193.753 184.238 194.01 184.011 194.218 183.748Z" fill="#282A39"/>
<path d="M188.231 190.422C188.491 190.153 188.673 189.861 188.777 189.543C188.88 189.232 188.91 188.904 188.865 188.559C188.817 188.217 188.7 187.866 188.513 187.506C188.326 187.145 188.071 186.785 187.75 186.426C187.316 185.941 186.89 185.584 186.471 185.354C186.053 185.131 185.644 185.05 185.245 185.113C184.849 185.179 184.464 185.404 184.091 185.79C183.831 186.058 183.599 186.358 183.395 186.689C183.188 187.023 182.983 187.406 182.78 187.838L181.689 186.618C181.861 186.2 182.06 185.823 182.287 185.487C182.511 185.147 182.794 184.801 183.135 184.448C183.795 183.767 184.468 183.352 185.155 183.203C185.841 183.06 186.521 183.146 187.196 183.461C187.873 183.778 188.526 184.289 189.155 184.993C189.619 185.512 189.979 186.056 190.233 186.623C190.488 187.19 190.629 187.763 190.658 188.341C190.686 188.919 190.591 189.487 190.371 190.045C190.151 190.603 189.799 191.132 189.314 191.632C188.996 191.961 188.638 192.245 188.242 192.486C187.845 192.733 187.433 192.932 187.007 193.084L186.388 191.449C186.736 191.324 187.072 191.182 187.396 191.022C187.719 190.863 187.998 190.663 188.231 190.422Z" fill="#282A39"/>
<path d="M176.031 191.075L180.107 187.688L185.483 195.157L181.407 198.544L180.473 197.247L183.048 195.106L181.868 193.467L179.472 195.458L178.538 194.16L180.934 192.169L179.548 190.243L176.972 192.383L176.031 191.075Z" fill="#282A39"/>
<path d="M169.703 198.689C169.431 198.215 169.306 197.731 169.325 197.236C169.345 196.74 169.512 196.258 169.827 195.788C170.138 195.321 170.595 194.888 171.196 194.489C171.462 194.313 171.733 194.158 172.009 194.026C172.282 193.895 172.555 193.787 172.829 193.701C173.102 193.62 173.374 193.563 173.644 193.53L174.547 195.102C174.087 195.176 173.622 195.275 173.153 195.4C172.684 195.525 172.257 195.715 171.872 195.97C171.607 196.146 171.414 196.324 171.295 196.503C171.172 196.685 171.111 196.864 171.111 197.04C171.11 197.216 171.157 197.386 171.251 197.55C171.366 197.75 171.529 197.878 171.74 197.934C171.951 197.99 172.205 198.005 172.504 197.978C172.799 197.953 173.128 197.918 173.493 197.872C173.722 197.841 173.976 197.818 174.257 197.803C174.54 197.791 174.829 197.814 175.122 197.871C175.415 197.927 175.697 198.044 175.968 198.222C176.237 198.405 176.477 198.679 176.685 199.042C176.959 199.519 177.088 199.996 177.073 200.474C177.057 200.951 176.906 201.408 176.62 201.844C176.333 202.285 175.923 202.682 175.392 203.034C174.993 203.299 174.585 203.501 174.169 203.642C173.75 203.788 173.292 203.901 172.792 203.981L172.561 202.318C173 202.233 173.383 202.138 173.708 202.032C174.036 201.931 174.345 201.784 174.636 201.591C174.839 201.457 174.992 201.308 175.096 201.143C175.201 200.983 175.256 200.816 175.258 200.644C175.263 200.475 175.219 200.311 175.127 200.151C175.018 199.961 174.874 199.836 174.694 199.774C174.512 199.719 174.28 199.702 173.998 199.723C173.712 199.747 173.362 199.785 172.949 199.838C172.446 199.905 171.996 199.924 171.599 199.896C171.2 199.874 170.844 199.771 170.53 199.587C170.219 199.407 169.943 199.107 169.703 198.689Z" fill="#282A39"/>
<path d="M162.635 202.575C162.408 202.079 162.329 201.585 162.396 201.096C162.463 200.606 162.676 200.144 163.035 199.709C163.39 199.276 163.887 198.892 164.526 198.556C164.808 198.407 165.094 198.281 165.382 198.177C165.667 198.074 165.95 197.994 166.232 197.936C166.512 197.883 166.789 197.854 167.062 197.847L167.813 199.497C167.347 199.524 166.874 199.577 166.393 199.654C165.913 199.732 165.469 199.878 165.06 200.093C164.778 200.241 164.569 200.398 164.433 200.564C164.293 200.733 164.214 200.904 164.197 201.079C164.18 201.253 164.211 201.427 164.289 201.599C164.385 201.809 164.535 201.952 164.74 202.029C164.946 202.105 165.199 202.145 165.499 202.148C165.796 202.153 166.129 202.151 166.497 202.141C166.729 202.133 166.985 202.136 167.267 202.148C167.551 202.165 167.836 202.216 168.124 202.301C168.412 202.387 168.682 202.531 168.936 202.734C169.187 202.942 169.4 203.237 169.574 203.619C169.802 204.12 169.885 204.606 169.824 205.078C169.763 205.551 169.569 205.989 169.242 206.393C168.913 206.802 168.466 207.155 167.901 207.452C167.478 207.675 167.052 207.835 166.622 207.933C166.191 208.037 165.721 208.104 165.215 208.134L165.143 206.46C165.59 206.42 165.98 206.363 166.316 206.291C166.653 206.223 166.976 206.107 167.284 205.945C167.499 205.832 167.667 205.699 167.786 205.546C167.907 205.398 167.977 205.238 167.996 205.067C168.016 204.9 167.988 204.732 167.912 204.564C167.821 204.366 167.689 204.227 167.515 204.148C167.339 204.075 167.109 204.035 166.825 204.028C166.537 204.023 166.184 204.026 165.766 204.038C165.258 204.054 164.807 204.029 164.413 203.962C164.016 203.9 163.67 203.763 163.375 203.549C163.081 203.339 162.835 203.014 162.635 202.575Z" fill="#282A39"/>
<path d="M150.596 207.201C150.446 206.676 150.441 206.179 150.582 205.709C150.722 205.239 151.003 204.819 151.426 204.45C151.844 204.082 152.396 203.786 153.081 203.559C153.384 203.459 153.686 203.382 153.989 203.326C154.287 203.272 154.581 203.239 154.87 203.227C155.156 203.221 155.435 203.237 155.708 203.275L156.206 205.018C155.739 204.969 155.26 204.944 154.771 204.942C154.282 204.94 153.819 205.011 153.38 205.156C153.078 205.256 152.846 205.377 152.686 205.518C152.522 205.66 152.418 205.816 152.374 205.985C152.331 206.154 152.335 206.329 152.387 206.51C152.451 206.732 152.579 206.897 152.771 207.006C152.964 207.115 153.209 207.195 153.507 207.247C153.801 207.3 154.132 207.352 154.5 207.403C154.731 207.432 154.986 207.476 155.264 207.535C155.543 207.597 155.82 207.693 156.092 207.824C156.365 207.955 156.612 208.14 156.834 208.381C157.052 208.627 157.219 208.951 157.334 209.355C157.486 209.883 157.495 210.375 157.363 210.829C157.232 211.283 156.973 211.682 156.587 212.025C156.198 212.374 155.701 212.649 155.095 212.849C154.641 212.999 154.193 213.087 153.752 213.113C153.307 213.145 152.831 213.135 152.323 213.081L152.504 211.426C152.954 211.458 153.351 211.466 153.695 211.45C154.04 211.438 154.378 211.377 154.709 211.268C154.94 211.191 155.126 211.088 155.268 210.957C155.41 210.831 155.504 210.685 155.548 210.52C155.594 210.36 155.591 210.19 155.541 210.013C155.481 209.803 155.37 209.645 155.209 209.54C155.045 209.439 154.823 209.362 154.542 209.309C154.256 209.258 153.905 209.204 153.488 209.147C152.98 209.081 152.536 208.982 152.154 208.852C151.77 208.727 151.447 208.536 151.185 208.278C150.925 208.024 150.729 207.665 150.596 207.201Z" fill="#282A39"/>
<path d="M141.94 215.937L140.908 210.073C140.798 209.449 140.836 208.857 141.023 208.297C141.207 207.741 141.55 207.261 142.053 206.854C142.553 206.449 143.222 206.161 144.061 205.991C145.253 205.748 146.216 205.869 146.949 206.354C147.681 206.839 148.137 207.585 148.314 208.594L149.342 214.433L147.436 214.82L146.459 209.272C146.328 208.524 146.083 208.03 145.726 207.79C145.368 207.551 144.892 207.491 144.295 207.612C143.876 207.698 143.549 207.839 143.316 208.036C143.078 208.234 142.924 208.497 142.854 208.824C142.783 209.15 142.789 209.547 142.872 210.014L143.846 215.55L141.94 215.937Z" fill="#282A39"/>
<path d="M134.632 215.119C135.004 215.089 135.33 214.989 135.608 214.82C135.883 214.655 136.109 214.428 136.286 214.14C136.46 213.853 136.584 213.512 136.657 213.119C136.731 212.726 136.751 212.289 136.717 211.807C136.672 211.158 136.554 210.61 136.363 210.162C136.169 209.719 135.893 209.39 135.538 209.174C135.182 208.963 134.737 208.878 134.202 208.921C133.829 208.951 133.46 209.023 133.093 209.137C132.723 209.25 132.323 209.403 131.895 209.593L131.781 207.96C132.176 207.76 132.567 207.609 132.955 207.506C133.343 207.399 133.782 207.326 134.271 207.287C135.216 207.211 136.008 207.343 136.646 207.684C137.279 208.028 137.767 208.541 138.109 209.221C138.451 209.905 138.654 210.717 138.72 211.659C138.768 212.354 138.718 212.998 138.57 213.591C138.422 214.184 138.181 214.706 137.846 215.158C137.512 215.61 137.085 215.973 136.565 216.246C136.046 216.519 135.439 216.683 134.745 216.739C134.289 216.776 133.829 216.754 133.365 216.673C132.897 216.597 132.447 216.475 132.014 216.308L132.532 214.675C132.886 214.811 133.241 214.925 133.597 215.019C133.952 215.113 134.297 215.146 134.632 215.119Z" fill="#282A39"/>
<path d="M126.015 215.171C126.389 215.182 126.722 215.118 127.015 214.979C127.303 214.844 127.55 214.643 127.753 214.376C127.953 214.108 128.107 213.783 128.217 213.4C128.327 213.017 128.388 212.584 128.4 212.102C128.415 211.451 128.349 210.893 128.2 210.427C128.048 209.966 127.804 209.608 127.471 209.356C127.136 209.107 126.701 208.976 126.164 208.961C125.791 208.95 125.416 208.982 125.041 209.056C124.662 209.129 124.25 209.237 123.806 209.38L123.845 207.744C124.256 207.588 124.659 207.479 125.055 207.419C125.451 207.354 125.895 207.329 126.385 207.342C127.333 207.368 128.109 207.585 128.712 207.992C129.311 208.403 129.749 208.965 130.025 209.678C130.302 210.395 130.429 211.226 130.406 212.17C130.39 212.866 130.28 213.501 130.077 214.075C129.875 214.649 129.586 215.142 129.211 215.556C128.836 215.969 128.377 216.284 127.835 216.5C127.292 216.716 126.673 216.814 125.976 216.795C125.519 216.782 125.063 216.711 124.609 216.581C124.15 216.455 123.714 216.285 123.299 216.072L123.966 214.504C124.306 214.677 124.649 214.829 124.994 214.961C125.339 215.092 125.68 215.162 126.015 215.171Z" fill="#282A39"/>
<path d="M116.976 206.423L122.222 207.176L121.087 216.308L115.841 215.555L116.038 213.969L119.353 214.444L119.602 212.439L116.518 211.997L116.715 210.41L119.799 210.853L120.092 208.498L116.777 208.022L116.976 206.423Z" fill="#282A39"/>
<path d="M107.557 206.763C107.677 206.231 107.909 205.802 108.254 205.476C108.599 205.149 109.041 204.944 109.58 204.86C110.116 204.774 110.732 204.822 111.431 205.005C111.739 205.085 112.037 205.185 112.324 205.303C112.607 205.42 112.876 205.553 113.131 205.702C113.38 205.854 113.613 206.021 113.83 206.203L113.43 207.971C113.05 207.673 112.65 207.388 112.23 207.118C111.809 206.848 111.376 206.655 110.929 206.538C110.621 206.458 110.364 206.434 110.158 206.467C109.949 206.499 109.785 206.575 109.668 206.696C109.55 206.817 109.47 206.97 109.429 207.154C109.378 207.379 109.41 207.591 109.524 207.79C109.638 207.989 109.811 208.192 110.043 208.401C110.272 208.608 110.532 208.834 110.825 209.079C111.01 209.232 111.208 209.409 111.421 209.612C111.632 209.819 111.824 210.053 111.997 210.315C112.17 210.577 112.295 210.872 112.371 211.199C112.442 211.53 112.432 211.9 112.339 212.309C112.218 212.846 111.992 213.272 111.663 213.589C111.333 213.906 110.92 214.106 110.424 214.189C109.923 214.275 109.364 214.237 108.747 214.076C108.284 213.955 107.856 213.785 107.463 213.565C107.065 213.349 106.659 213.078 106.247 212.754L107.19 211.433C107.562 211.708 107.901 211.933 108.205 212.108C108.509 212.287 108.829 212.42 109.166 212.508C109.401 212.57 109.611 212.583 109.795 212.549C109.978 212.519 110.128 212.445 110.245 212.328C110.361 212.215 110.439 212.069 110.48 211.889C110.528 211.676 110.508 211.48 110.419 211.301C110.326 211.125 110.171 210.937 109.954 210.737C109.732 210.536 109.455 210.297 109.123 210.02C108.717 209.684 108.381 209.356 108.113 209.034C107.841 208.716 107.654 208.375 107.552 208.01C107.449 207.649 107.45 207.234 107.557 206.763Z" fill="#282A39"/>
<path d="M100.098 204.001C100.266 203.482 100.537 203.078 100.909 202.788C101.281 202.497 101.738 202.338 102.281 202.308C102.82 202.278 103.427 202.389 104.103 202.643C104.402 202.755 104.688 202.885 104.962 203.032C105.231 203.178 105.486 203.338 105.724 203.513C105.958 203.69 106.173 203.881 106.372 204.085L105.811 205.809C105.462 205.472 105.092 205.147 104.7 204.834C104.308 204.522 103.896 204.284 103.463 204.122C103.165 204.01 102.912 203.96 102.706 203.972C102.495 203.983 102.326 204.042 102.198 204.151C102.07 204.26 101.977 204.404 101.918 204.584C101.847 204.803 101.859 205.018 101.954 205.228C102.048 205.438 102.201 205.659 102.413 205.891C102.62 206.121 102.858 206.373 103.125 206.648C103.295 206.819 103.475 207.017 103.667 207.241C103.857 207.469 104.026 207.722 104.173 208.002C104.32 208.281 104.417 208.588 104.462 208.923C104.502 209.26 104.458 209.628 104.328 210.027C104.158 210.55 103.895 210.953 103.539 211.236C103.182 211.518 102.754 211.676 102.255 211.708C101.75 211.742 101.199 211.647 100.602 211.423C100.154 211.255 99.7449 211.042 99.3752 210.782C99.0003 210.525 98.6233 210.213 98.2442 209.847L99.3024 208.626C99.646 208.938 99.9607 209.197 100.246 209.403C100.531 209.613 100.836 209.779 101.162 209.901C101.39 209.987 101.597 210.022 101.783 210.006C101.967 209.995 102.123 209.937 102.249 209.832C102.375 209.731 102.466 209.593 102.523 209.417C102.59 209.21 102.588 209.012 102.517 208.824C102.441 208.639 102.304 208.435 102.107 208.214C101.907 207.991 101.654 207.724 101.35 207.412C100.978 207.036 100.675 206.674 100.44 206.326C100.199 205.98 100.045 205.62 99.9776 205.246C99.9085 204.875 99.9486 204.46 100.098 204.001Z" fill="#282A39"/>
<path d="M97.0847 199.69L98.8121 200.527L95.2481 209.011L90.5021 206.71L91.1212 205.236L94.1399 206.7L95.059 204.512L92.2498 203.15L92.8666 201.681L95.6757 203.044L97.0847 199.69Z" fill="#282A39"/>
<path d="M82.5361 201.798L85.3645 196.558C85.6655 196 86.0568 195.57 86.5386 195.269C87.0149 194.968 87.5641 194.837 88.1864 194.874C88.8052 194.909 89.4778 195.153 90.2043 195.606C91.2371 196.25 91.8767 197.013 92.123 197.897C92.3694 198.781 92.2494 199.674 91.763 200.575L88.9466 205.792L87.2959 204.764L89.9718 199.806C90.3326 199.138 90.4539 198.587 90.3359 198.153C90.2179 197.719 89.9006 197.341 89.3842 197.02C89.021 196.793 88.6923 196.675 88.3982 196.664C88.1005 196.651 87.8254 196.747 87.5731 196.95C87.3207 197.153 87.082 197.463 86.8567 197.88L84.1868 202.826L82.5361 201.798Z" fill="#282A39"/>
<path d="M84.9707 192.063L79.8751 199.726L78.3273 198.537L82.5307 192.216L79.5699 189.944L80.4622 188.602L84.9707 192.063Z" fill="#282A39"/>
<path d="M79.4212 187.123L73.8485 194.447L72.3825 193.159L76.9795 187.118L74.1753 184.654L75.1511 183.372L79.4212 187.123Z" fill="#282A39"/>
<path d="M69.9726 185.488L66.0996 186.903L64.6491 185.381L70.5356 183.431L72.9443 180.78L74.2819 182.184L71.9156 184.788L70.1994 191.204L68.7402 189.673L69.9726 185.488Z" fill="#282A39"/>
<path d="M60.8849 179.823L59.7101 178.079L62.0928 174.547C62.1687 174.435 62.2498 174.327 62.336 174.223C62.4223 174.118 62.5142 174.015 62.6118 173.913C62.7094 173.81 62.8142 173.707 62.9264 173.604L62.9053 173.573C62.7124 173.691 62.5264 173.793 62.3473 173.88C62.1658 173.962 61.9802 174.035 61.7903 174.098L57.9372 175.449L56.787 173.742L64.7155 171.337C65.2006 171.188 65.6515 171.134 66.0683 171.176C66.4885 171.215 66.8687 171.341 67.2089 171.554C67.5468 171.763 67.8412 172.054 68.0921 172.426C68.214 172.607 68.3096 172.771 68.3789 172.919C68.4514 173.064 68.5094 173.191 68.5528 173.301L67.3506 174.236C67.3179 174.15 67.2706 174.046 67.2088 173.925C67.1471 173.803 67.0751 173.681 66.993 173.559C66.843 173.337 66.6693 173.18 66.472 173.09C66.2747 172.999 66.0635 172.959 65.8385 172.97C65.6167 172.978 65.3953 173.02 65.1743 173.097L64.8377 173.215L60.8849 179.823Z" fill="#282A39"/>
<path d="M60.8271 162.14L63.2937 166.83L55.4272 171.606L52.9606 166.915L54.3273 166.085L55.8857 169.049L57.6129 168L56.1629 165.243L57.5296 164.413L58.9796 167.171L61.0081 165.94L59.4497 162.976L60.8271 162.14Z" fill="#282A39"/>
<path d="M57.1071 153.152L55.3558 154.678L56.5816 157.801L58.8206 157.518L59.5887 159.474L49.9857 160.265L49.114 158.044L56.339 151.196L57.1071 153.152ZM54.0353 155.787L52.3298 157.291C52.2152 157.389 52.0697 157.517 51.8932 157.675C51.7113 157.831 51.5283 157.99 51.3441 158.152C51.1546 158.311 50.9892 158.446 50.8478 158.556C51.0198 158.524 51.2362 158.491 51.497 158.455C51.7524 158.418 51.9955 158.383 52.2265 158.352C52.4574 158.321 52.6222 158.3 52.7208 158.287L54.9116 158.019L54.0353 155.787Z" fill="#282A39"/>
<path d="M46.4181 149.56C46.191 148.757 46.0996 148.063 46.1438 147.48C46.1869 146.892 46.366 146.408 46.6811 146.028C46.9961 145.647 47.4489 145.36 48.0393 145.168C48.4382 145.038 48.809 145 49.1515 145.056C49.4941 145.112 49.8045 145.231 50.0827 145.414C50.3609 145.597 50.6069 145.812 50.8207 146.06L53.8963 142.211L54.4852 144.295L51.7257 147.504L52.0082 148.504L55.3652 147.408L55.8959 149.286L47.1474 152.141L46.4181 149.56ZM47.9757 149.198L48.1366 149.767L50.5002 148.996L50.3291 148.39C50.1533 147.768 49.926 147.357 49.6472 147.157C49.3633 146.954 49.0219 146.918 48.623 147.048C48.2081 147.183 47.954 147.425 47.8606 147.773C47.7661 148.117 47.8045 148.592 47.9757 149.198Z" fill="#282A39"/>
<path d="M50.4874 135.224C51.0204 135.108 51.5082 135.137 51.9508 135.311C52.3935 135.485 52.7684 135.799 53.0758 136.251C53.3824 136.699 53.6025 137.278 53.7364 137.987C53.7955 138.301 53.8329 138.613 53.8487 138.922C53.8637 139.228 53.8584 139.528 53.8326 139.821C53.8019 140.111 53.7505 140.393 53.6783 140.666L51.907 141.052C52.0147 140.582 52.1008 140.1 52.1654 139.605C52.23 139.11 52.2195 138.636 52.1339 138.182C52.0748 137.869 51.9863 137.626 51.8685 137.454C51.75 137.278 51.6108 137.163 51.4509 137.107C51.2911 137.052 51.1189 137.044 50.9344 137.084C50.7089 137.134 50.5306 137.252 50.3995 137.439C50.2683 137.627 50.1584 137.87 50.0695 138.168C49.9799 138.462 49.8867 138.794 49.7898 139.163C49.731 139.394 49.6553 139.649 49.5626 139.927C49.4658 140.206 49.3358 140.478 49.1729 140.746C49.0099 141.013 48.7964 141.251 48.5325 141.458C48.2638 141.663 47.9244 141.81 47.5144 141.899C46.9773 142.016 46.4947 141.992 46.0667 141.828C45.6387 141.664 45.2811 141.375 44.9938 140.961C44.7017 140.543 44.4965 140.021 44.3783 139.395C44.2896 138.925 44.2605 138.465 44.2911 138.016C44.3168 137.564 44.3882 137.083 44.5053 136.572L46.1042 136.868C46.0146 137.321 45.9559 137.722 45.9279 138.072C45.8959 138.422 45.9121 138.769 45.9767 139.111C46.0218 139.35 46.0993 139.546 46.2091 139.698C46.3148 139.851 46.4455 139.955 46.6012 140.012C46.7529 140.069 46.9189 140.078 47.0993 140.038C47.3125 139.992 47.4812 139.891 47.6055 139.735C47.7249 139.576 47.8285 139.356 47.9164 139.075C48.0034 138.79 48.1014 138.438 48.2102 138.019C48.3404 137.51 48.4936 137.067 48.67 136.689C48.8415 136.308 49.0704 135.994 49.3567 135.747C49.639 135.501 50.0159 135.327 50.4874 135.224Z" fill="#282A39"/>
</svg>
